<svg viewBox="0 0 430 380" xmlns="http://www.w3.org/2000/svg" width="430" height="380">

  <!-- sfondo -->
  <rect width="430" height="380" fill="#0a0a0a"/>

  <!-- CARTA 1 — Ebraico Biblico · rotate(-11deg) · z-index 1 (retro) -->
  <g transform="translate(110,50) rotate(-11, 105, 140)">
    <path d="M12,0 H198 Q210,0 210,12 V268 Q210,280 198,280 H12 Q0,280 0,268 V12 Q0,0 12,0 Z" fill="#111"/>
    <path d="M12,0 H198 Q210,0 210,12 V90 H0 V12 Q0,0 12,0 Z" fill="#162416"/>
    <line x1="0" y1="90" x2="210" y2="90" stroke="rgba(255,255,255,0.07)" stroke-width="1"/>
    <path d="M12,0 H198 Q210,0 210,12 V268 Q210,280 198,280 H12 Q0,280 0,268 V12 Q0,0 12,0 Z" fill="none" stroke="rgba(255,255,255,0.13)" stroke-width="1"/>
    <text x="16" y="34" font-family="Inter, Arial, sans-serif" font-size="8" font-weight="600" letter-spacing="1.2" fill="rgba(245,245,245,0.5)">EBRAICO BIBLICO · A1</text>
    <text x="16" y="54" font-family="Inter, Arial, sans-serif" font-size="11" font-weight="600" letter-spacing="0.4" fill="#f5f5f5">LIVELLO BASE</text>
    <text x="16" y="118" font-family="Georgia, serif" font-size="15" fill="#f5f5f5">L'alfabeto e i primi</text>
    <text x="16" y="138" font-family="Georgia, serif" font-size="15" fill="#f5f5f5">paradigmi</text>
    <text x="16" y="163" font-family="Inter, Arial, sans-serif" font-size="10" fill="rgba(245,245,245,0.4)">8 lezioni · Attestato incluso</text>
    <line x1="0" y1="252" x2="210" y2="252" stroke="rgba(255,255,255,0.07)" stroke-width="1"/>
    <circle cx="16" cy="266" r="4" fill="#2a4028"/>
    <text x="26" y="270" font-family="Inter, Arial, sans-serif" font-size="10" fill="rgba(245,245,245,0.55)">Ebraico Biblico</text>
  </g>

  <!-- CARTA 2 — Greco Antico · rotate(-4deg) · z-index 2 -->
  <g transform="translate(110,50) rotate(-4, 105, 140)">
    <path d="M12,0 H198 Q210,0 210,12 V268 Q210,280 198,280 H12 Q0,280 0,268 V12 Q0,0 12,0 Z" fill="#111"/>
    <path d="M12,0 H198 Q210,0 210,12 V90 H0 V12 Q0,0 12,0 Z" fill="#0e1e35"/>
    <line x1="0" y1="90" x2="210" y2="90" stroke="rgba(255,255,255,0.07)" stroke-width="1"/>
    <path d="M12,0 H198 Q210,0 210,12 V268 Q210,280 198,280 H12 Q0,280 0,268 V12 Q0,0 12,0 Z" fill="none" stroke="rgba(255,255,255,0.13)" stroke-width="1"/>
    <text x="16" y="34" font-family="Inter, Arial, sans-serif" font-size="8" font-weight="600" letter-spacing="1.2" fill="rgba(245,245,245,0.5)">GRECO ANTICO · A2</text>
    <text x="16" y="54" font-family="Inter, Arial, sans-serif" font-size="11" font-weight="600" letter-spacing="0.4" fill="#f5f5f5">LIVELLO ELEMENTARE</text>
    <text x="16" y="118" font-family="Georgia, serif" font-size="15" fill="#f5f5f5">La Tragedia dei Greci</text>
    <text x="16" y="163" font-family="Inter, Arial, sans-serif" font-size="10" fill="rgba(245,245,245,0.4)">Giampiero Marchi · Attestato incluso</text>
    <line x1="0" y1="252" x2="210" y2="252" stroke="rgba(255,255,255,0.07)" stroke-width="1"/>
    <circle cx="16" cy="266" r="4" fill="#1a3258"/>
    <text x="26" y="270" font-family="Inter, Arial, sans-serif" font-size="10" fill="rgba(245,245,245,0.55)">Greco Antico</text>
  </g>

  <!-- CARTA 4 — Egiziano · rotate(10deg) · z-index 2 · opacity .85 -->
  <g transform="translate(110,50) rotate(10, 105, 140)" opacity="0.85">
    <path d="M12,0 H198 Q210,0 210,12 V268 Q210,280 198,280 H12 Q0,280 0,268 V12 Q0,0 12,0 Z" fill="#111"/>
    <path d="M12,0 H198 Q210,0 210,12 V90 H0 V12 Q0,0 12,0 Z" fill="#3a2a08"/>
    <line x1="0" y1="90" x2="210" y2="90" stroke="rgba(255,255,255,0.07)" stroke-width="1"/>
    <path d="M12,0 H198 Q210,0 210,12 V268 Q210,280 198,280 H12 Q0,280 0,268 V12 Q0,0 12,0 Z" fill="none" stroke="rgba(255,255,255,0.13)" stroke-width="1"/>
    <text x="16" y="34" font-family="Inter, Arial, sans-serif" font-size="8" font-weight="600" letter-spacing="1.2" fill="rgba(245,245,245,0.5)">EGIZIANO · A1</text>
    <text x="16" y="54" font-family="Inter, Arial, sans-serif" font-size="11" font-weight="600" letter-spacing="0.4" fill="#f5f5f5">LIVELLO BASE</text>
    <text x="16" y="118" font-family="Georgia, serif" font-size="15" fill="#f5f5f5">Scrittura e lettura dei</text>
    <text x="16" y="138" font-family="Georgia, serif" font-size="15" fill="#f5f5f5">geroglifici</text>
    <text x="16" y="163" font-family="Inter, Arial, sans-serif" font-size="10" fill="rgba(245,245,245,0.4)">10 lezioni · Attestato incluso</text>
    <line x1="0" y1="252" x2="210" y2="252" stroke="rgba(255,255,255,0.07)" stroke-width="1"/>
    <circle cx="16" cy="266" r="4" fill="#c9962a"/>
    <text x="26" y="270" font-family="Inter, Arial, sans-serif" font-size="10" fill="rgba(245,245,245,0.55)">Egiziano Geroglifico</text>
  </g>

  <!-- CARTA 3 — Latino · rotate(3deg) · z-index 3 (fronte) -->
  <g transform="translate(110,50) rotate(3, 105, 140)">
    <path d="M12,0 H198 Q210,0 210,12 V268 Q210,280 198,280 H12 Q0,280 0,268 V12 Q0,0 12,0 Z" fill="#111"/>
    <path d="M12,0 H198 Q210,0 210,12 V90 H0 V12 Q0,0 12,0 Z" fill="#3d1e10"/>
    <line x1="0" y1="90" x2="210" y2="90" stroke="rgba(255,255,255,0.07)" stroke-width="1"/>
    <path d="M12,0 H198 Q210,0 210,12 V268 Q210,280 198,280 H12 Q0,280 0,268 V12 Q0,0 12,0 Z" fill="none" stroke="rgba(255,255,255,0.13)" stroke-width="1"/>
    <text x="16" y="34" font-family="Inter, Arial, sans-serif" font-size="8" font-weight="600" letter-spacing="1.2" fill="rgba(245,245,245,0.5)">LATINO · B1</text>
    <text x="16" y="54" font-family="Inter, Arial, sans-serif" font-size="11" font-weight="600" letter-spacing="0.4" fill="#f5f5f5">LIVELLO INTERMEDIO</text>
    <text x="16" y="118" font-family="Georgia, serif" font-size="15" fill="#f5f5f5">Cicerone e la prosa</text>
    <text x="16" y="138" font-family="Georgia, serif" font-size="15" fill="#f5f5f5">classica</text>
    <text x="16" y="163" font-family="Inter, Arial, sans-serif" font-size="10" fill="rgba(245,245,245,0.4)">16 lezioni · Attestato incluso</text>
    <line x1="0" y1="252" x2="210" y2="252" stroke="rgba(255,255,255,0.07)" stroke-width="1"/>
    <circle cx="16" cy="266" r="4" fill="#5a2e18"/>
    <text x="26" y="270" font-family="Inter, Arial, sans-serif" font-size="10" fill="rgba(245,245,245,0.55)">Latino</text>
  </g>

</svg>
